<svg version="1.2" xmlns="http://www.w3.org/2000/svg" viewBox="0 0 326 331" width="480" height="487">
	<title>New Project</title>
	<style>
		.s0 { fill: #000000 } 
		.s1 { fill: #1f2326 } 
		.s2 { fill: #c4c4c4 } 
		.s3 { fill: #edbc9f } 
		.s4 { fill: #c02f30 } 
		.s5 { fill: #e9bda0 } 
		.s6 { fill: #dad9db } 
		.s7 { fill: #ffffff } 
		.s8 { fill: #394044 } 
		.s9 { fill: #e6bda0 } 
		.s10 { fill: #202028 } 
		.s11 { fill: #272730 } 
		.s12 { fill: none;stroke: #141418;stroke-width: 1.5 } 
		.s13 { fill: #e2b99c } 
		.s14 { fill: #cb9180 } 
		.s15 { fill: none;stroke: #cb9180;stroke-linecap: round;stroke-linejoin: round;stroke-width: 1.2 } 
	</style>
	<g id="&lt;Group&gt;">
		<g id="&lt;Group&gt;">
			<path id="&lt;Path&gt;" class="s0" d="m236.7 225h-77.1c-3.6 0-6.6-3-6.6-6.6 0-3.6 3-6.5 6.6-6.5h77.1c3.6 0 6.5 2.9 6.5 6.5 0 3.6-2.9 6.6-6.5 6.6z"/>
			<g id="&lt;Group&gt;">
				<path id="&lt;Path&gt;" class="s0" d="m248.5 300.6v6.6h-66.4v-6.6z"/>
				<path id="&lt;Path&gt;" class="s0" d="m188.3 305.9c0.5 3.4-1.8 6.6-5.2 7.2-3.4 0.5-6.6-1.8-7.2-5.2-0.5-3.4 1.8-6.6 5.2-7.2 3.4-0.5 6.6 1.8 7.2 5.2z"/>
				<path id="&lt;Path&gt;" class="s0" d="m218.3 303.3h-6.6v-82.6h6.6z"/>
				<path id="&lt;Path&gt;" class="s0" d="m254.7 305.9c0.6 3.4-1.7 6.6-5.1 7.2-3.4 0.5-6.7-1.8-7.2-5.2-0.6-3.4 1.7-6.6 5.1-7.2 3.4-0.5 6.6 1.8 7.2 5.2z"/>
			</g>
			<path id="&lt;Path&gt;" class="s1" d="m256.9 225h-72.9c-4.9 0-8.5-4.9-7.1-9.8l34.8-120c0.9-3.2 3.9-5.4 7.2-5.4h72.9c4.9 0 8.5 4.9 7.1 9.7l-34.8 120c-1 3.3-3.9 5.5-7.2 5.5z"/>
			<path id="&lt;Path&gt;" class="s2" d="m246.9 225h-63.5c-5 0-8.5-4.9-7.1-9.8l34.8-120c0.9-3.2 3.8-5.4 7.1-5.4h63.5c5 0 8.6 4.9 7.2 9.7l-34.9 120c-0.9 3.3-3.8 5.5-7.1 5.5z"/>
			<path id="&lt;Path&gt;" class="s1" d="m256.9 225h-77.1c-3.6 0-6.6-3-6.6-6.6 0-3.6 3-6.5 6.6-6.5h77.1c3.6 0 6.5 2.9 6.5 6.5 0 3.6-2.9 6.6-6.5 6.6z"/>
		</g>
		<g id="&lt;Group&gt;">
			<g id="&lt;Group&gt;">
				<g id="&lt;Group&gt;">
					<path id="&lt;Path&gt;" class="s3" d="m209.7 124.8l-6 48.7-21.3 4-3.7-8.9 15.8-45.5z"/>
					<path id="&lt;Path&gt;" class="s4" d="m205.3 141.2l-16.5-9.9c2.7-23.3 15.2-30.4 15.2-30.4z"/>
				</g>
				<path id="&lt;Path&gt;" class="s4" d="m240.4 90.2c28.2 4.6 33.1 22.4 33.1 22.4l-30 85.4-56.3-22.2 16.8-74.9 21.4-8.9z"/>
				<g id="&lt;Group&gt;">
					<path id="&lt;Path&gt;" class="s5" d="m259.2 170.6l-11-51c-2.1-5.7 0.3-12.1 5.7-15.1 7.2-4 16.4 0.1 18.2 8.2l9.2 59.4c0.3 0.9 0.9 6.9 0.9 7.8z"/>
					<path id="&lt;Path&gt;" class="s5" d="m282.2 179.9c0.7 9.8-8.8 17.2-18.1 14l-60.4-20.4 3.1-11.2 62.8 4.9c6.8 0.5 12.2 6 12.6 12.7z"/>
					<path id="&lt;Path&gt;" class="s4" d="m265.8 102.7c0 0 8 3.5 11.4 24.2l-28.2 8.7c0 0-18.5-20.7 1.2-34.5z"/>
					<path id="&lt;Path&gt;" class="s3" d="m198.1 157.9c6.7-1.5 17 2.2 19.3 8.3 2.3 6.2-4 9.8-10.2 12.1-6.1 2.3-17.8 2-20.1-4.2-2.3-6.1 2.9-14.3 11-16.2z"/>
				</g>
				<g id="&lt;Group&gt;">
					<path id="&lt;Path&gt;" class="s6" d="m221.3 182.5l-44.8-5.8 0.6-5 44.9 5.7c1.3 0.2 2.3 1.5 2.2 2.9-0.2 1.4-1.5 2.4-2.9 2.2z"/>
					<g id="&lt;Group&gt;">
						<path id="&lt;Path&gt;" class="s6" d="m182.4 177.5l-59.4-7.6c-3.4-0.5-6.1-3.1-6.6-6.5l-6.2-43.1c-0.6-3.8 2.6-7.1 6.5-6.6l54.5 7c2.3 0.3 4.1 2.1 4.4 4.3z"/>
						<path id="&lt;Path&gt;" class="s7" d="m149.4 147.9c-0.4 3.1-3.2 5.3-6.3 4.9-3.1-0.4-5.3-3.2-4.9-6.3 0.4-3.1 3.2-5.3 6.3-4.9 3.2 0.4 5.3 3.2 4.9 6.3z"/>
					</g>
				</g>
			</g>
			<g id="&lt;Group&gt;">
				<g id="&lt;Group&gt;">
					<g id="&lt;Group&gt;">
						<g id="&lt;Group&gt;">
							<path id="&lt;Path&gt;" class="s8" d="m130.6 293.7l-1.1 21.3-52.8-6.6 0.4-2.1c1-4.3 4.7-7.6 9.2-7.9l9.7-0.7 15.4-6.4z"/>
							<path id="&lt;Path&gt;" class="s0" d="m129.7 315.4l-53.3-6.7 0.5-3.5c0.1-0.6 0.6-1 1.2-0.9l52.2 6.5z"/>
						</g>
						<path id="&lt;Path&gt;" class="s9" d="m111.4 291.3l5.2-23.3 19.1 2.6-5.1 23.1z"/>
					</g>
					<path id="&lt;Path&gt;" class="s10" d="m243.5 198c0 0-1.5 12.8-24.5 14.6h-55.2l-26.1 72.6-27.4-4.4 27.4-106.7 62.8 7z"/>
					<path id="&lt;Path&gt;" class="s11" d="m140.7 288.2l-33.1-6.2 2.3-12.7 33.1 6.2z"/>
					<path id="&lt;Path&gt;" class="s12" d="m113 269.8l28.1 5.3"/>
				</g>
				<g id="&lt;Group&gt;">
					<g id="&lt;Group&gt;">
						<g id="&lt;Group&gt;">
							<path id="&lt;Path&gt;" class="s8" d="m82.4 261.5l-11.9 17.7-41.9-32.8 1.4-1.6c3.1-3.2 7.9-4.1 12-2.1l8.7 4.4 16.5 2.4z"/>
							<path id="&lt;Path&gt;" class="s0" d="m70.5 279.6l-42.3-33.1 2.2-2.8c0.3-0.4 1-0.5 1.5-0.1l41.4 32.4z"/>
						</g>
						<path id="&lt;Path&gt;" class="s9" d="m67.2 249.5l14.5-18.4 15 12.1-14.3 18.3z"/>
					</g>
					<path id="&lt;Path&gt;" class="s10" d="m200.5 181.1l-38 0.1c-7 0-13.6 3.3-17.8 9l-49.1 62.6-22.5-16.6c0 0 36.9-53.2 46.1-67.3 7.2-11 16.5-9 20.2-7.6 1.7 0.6 3.5 1.3 5.3 1.8l42.5 12.7z"/>
					<path id="&lt;Path&gt;" class="s11" d="m93.8 260.1l-26.7-20.4 7.8-10.3 26.8 20.4z"/>
					<path id="&lt;Path&gt;" class="s12" d="m76.6 230.7l22.5 17.2"/>
					<path id="&lt;Path&gt;" class="s12" d="m129.2 211.5l15.5-21.1c4.2-5.7 10.9-9.1 18-9.1h24.5"/>
				</g>
			</g>
			<g id="&lt;Group&gt;">
				<path id="&lt;Path&gt;" class="s1" d="m236.2 50.8l-8.5-2.5c0 0-8-1.3-18.2 0.5-10.2 1.8-15.8-1.4-16.5-8.8-0.7-7.3 7.6-11.9 16.5-9.9 8.8 2 5-2 18.9-3.4 13.9-1.3 15.4 11.1 15.4 11.1 19.1 8.3-1.1 34.6-1.9 36z"/>
				<g id="&lt;Group&gt;">
					<g id="&lt;Group&gt;">
						<path id="&lt;Path&gt;" class="s13" d="m234.3 104.8l-1.8 0.1c-5.5 0.4-8.6-3.9-9-9.5l-1.6-23.9 20.7-7.3 1 29.9c0.4 5.5-3.8 10.3-9.3 10.7z"/>
					</g>
					<path id="&lt;Path&gt;" class="s14" d="m240.8 68.4c0 0 3.9 24.9-17.3 26.3l-1-11.8z"/>
				</g>
				<path id="&lt;Path&gt;" class="s14" d="m204.7 58.6c3.6-0.2 6.6 2.6 6.8 6.1 0.2 3.6-2.6 6.7-6.2 6.8-3.5 0.2-6.6-2.6-6.7-6.1-0.2-3.6 2.5-6.7 6.1-6.8z"/>
				<path id="&lt;Path&gt;" class="s13" d="m203.1 70.8l-0.8-17.7c-0.2-4.9 3.6-9.1 8.5-9.3l25.2-1.2c2.8-0.1 5.1 2 5.2 4.7l1 21.7c0.5 10.6-7.7 19.6-18.2 20.1h-0.8c-10.6 0.5-19.6-7.7-20.1-18.3z"/>
				<path id="&lt;Path&gt;" class="s13" d="m243.6 55.7c3.6-0.2 6.6 2.6 6.8 6.2 0.2 3.5-2.6 6.6-6.2 6.7-3.6 0.2-6.6-2.5-6.8-6.1-0.1-3.6 2.6-6.6 6.2-6.8z"/>
				<path id="&lt;Path&gt;" class="s1" d="m239.9 43.8l1.4 25.5c1.7 12.4-5.6 21.7-20.3 21.1-14.6-0.5-16.7-11.8-16.7-11.8 0 0-0.8-6 9.9-6.5 11.6-0.7 9 3.6 14.7 4.4 2.1 0.3 3-0.7 4.1-1.5 1.8-1.3 2.7-3.5 2.6-5.7l-1.3-24.1z"/>
				<path id="&lt;Path&gt;" class="s1" d="m238 46.1c0 0 8.4 10.1 0.7 10.3-7.8 0.1-6.4-9.5-6.4-9.5z"/>
				<g id="&lt;Group&gt;">
					<path id="&lt;Path&gt;" class="s1" d="m221.1 60.1c0.9-0.1 1.6 0.5 1.8 1.4 0.1 0.8-0.6 1.6-1.4 1.7-0.9 0.1-1.7-0.5-1.8-1.4-0.1-0.8 0.5-1.6 1.4-1.7z"/>
					<path id="&lt;Path&gt;" class="s1" d="m207.7 60.7c0.9-0.1 1.7 0.5 1.8 1.3 0.1 0.9-0.5 1.7-1.4 1.8-0.9 0.1-1.6-0.5-1.7-1.4-0.2-0.8 0.5-1.6 1.3-1.7z"/>
					<path id="&lt;Path&gt;" class="s15" d="m216.2 70.2c-3.4 1.1-3.7-1.2-3.7-1.2v-6.6"/>
					<path id="&lt;Path&gt;" class="s1" d="m225.3 56.9q-0.2 0-0.3 0l-7.1 0.1c-0.8 0-1.5-0.7-1.5-1.5 0-0.8 0.7-1.4 1.5-1.4l7-0.1c0.8 0 1.5 0.6 1.5 1.4 0 0.7-0.5 1.3-1.1 1.5z"/>
					<path id="&lt;Path&gt;" class="s1" d="m209.1 57.3q-0.1 0-0.3 0l-4.3 0.1c-0.8 0-1.4-0.6-1.5-1.4 0-0.8 0.7-1.5 1.5-1.5h4.3c0.8 0 1.4 0.6 1.5 1.4 0 0.7-0.5 1.3-1.2 1.4z"/>
				</g>
				<path id="&lt;Path&gt;" class="s1" d="m204.3 40.7l11.9-2.7 20.1 0.9 7.2 5.6 0.1 11.2c0 0-3 1.2-3.5 1.3-0.6 0.1-2.7-3.6-2.7-3.6 0 0-7.8-8-17.7-5.6-9.9 2.5-16.7 1.4-16.7 1.4z"/>
			</g>
		</g>
	</g>
</svg>